<?xml version="1.0" standalone="no"?><!DOCTYPE svg PUBLIC "-//W3C//DTD SVG 1.1//EN" "http://www.w3.org/Graphics/SVG/1.1/DTD/svg11.dtd"><svg t="1545552893923" class="icon" style="" viewBox="0 0 1024 1024" version="1.1" xmlns="http://www.w3.org/2000/svg" p-id="2281" xmlns:xlink="http://www.w3.org/1999/xlink" width="48" height="48"><defs><style type="text/css"></style></defs><path d="M512 8.416438C234.257534 8.416438 7.013699 234.257534 7.013699 513.40274s225.841096 504.986301 504.986301 504.986301c277.742466 0 504.986301-225.841096 504.986301-504.986301S789.742466 8.416438 512 8.416438z m0 938.432877c-239.868493 0-434.849315-194.980822-434.849315-434.849315s194.980822-434.849315 434.849315-434.849315 434.849315 194.980822 434.849315 434.849315-194.980822 434.849315-434.849315 434.849315z" p-id="2282" fill="#606166"></path><path d="M512 687.342466c39.276712 0 70.136986-30.860274 70.136986-70.136987V186.564384c0-39.276712-30.860274-70.136986-70.136986-70.136987s-70.136986 30.860274-70.136986 70.136987V617.205479c0 39.276712 30.860274 70.136986 70.136986 70.136987zM514.805479 705.578082c-39.276712 0-70.136986 30.860274-70.136986 70.136986v82.761644c0 39.276712 30.860274 70.136986 70.136986 70.136987s70.136986-30.860274 70.136987-70.136987v-82.761644c0-37.873973-30.860274-70.136986-70.136987-70.136986z" p-id="2283" fill="#606166"></path></svg>